<svg width="300" height="51" viewBox="0 0 300 51" fill="none" xmlns="http://www.w3.org/2000/svg">
<rect width="6.25" height="6.25" transform="translate(6.25 1)" fill="#FFD5E1"/>
<rect width="6.25" height="6.25" transform="translate(0 1)" fill="#FFD5E1"/>
<rect width="6.25" height="6.25" transform="translate(12.5 1)" fill="#FFD5E1"/>
<rect width="6.25" height="6.25" transform="translate(18.75 1)" fill="#FFD5E1"/>
<rect width="6.25" height="6.25" transform="translate(25 1)" fill="#FFD5E1"/>
<rect width="6.25" height="6.25" transform="translate(0 7.25)" fill="#FFD5E1"/>
<rect width="6.25" height="6.25" transform="translate(6.25 7.25)" fill="#FFD5E1"/>
<rect width="6.25" height="6.25" transform="translate(12.5 7.25)" fill="#FFD5E1"/>
<rect width="6.25" height="6.25" transform="translate(18.75 7.25)" fill="#FFD5E1"/>
<rect width="6.25" height="6.25" transform="translate(18.75 13.5)" fill="#FF89AC"/>
<rect width="6.25" height="6.25" transform="translate(31.25 7.25)" fill="#FFD5E1"/>
<rect width="6.25" height="6.25" transform="translate(25 7.25)" fill="#FFD5E1"/>
<rect width="6.25" height="6.25" transform="translate(37.5 7.25)" fill="#FFD5E1"/>
<rect width="6.25" height="6.25" transform="translate(31.25 1)" fill="#FFD5E1"/>
<rect width="6.25" height="6.25" transform="translate(0 13.5)" fill="#FFD5E1"/>
<rect width="6.25" height="6.25" transform="translate(6.25 13.5)" fill="#FFD5E1"/>
<rect width="6.25" height="6.25" transform="translate(12.5 13.5)" fill="#FFD5E1"/>
<rect width="6.25" height="6.25" transform="translate(25 13.5)" fill="#FFD5E1"/>
<rect width="6.25" height="6.25" transform="translate(31.25 13.5)" fill="#FFD5E1"/>
<rect width="6.25" height="6.25" transform="translate(37.5 13.5)" fill="#FFD5E1"/>
<rect width="6.25" height="6.25" transform="translate(0 19.75)" fill="#FFD5E1"/>
<rect width="6.25" height="6.25" transform="translate(6.25 19.75)" fill="#FFD5E1"/>
<rect width="6.25" height="6.25" transform="translate(12.5 19.75)" fill="#FFD5E1"/>
<rect width="6.25" height="6.25" transform="translate(25 19.75)" fill="#FFD5E1"/>
<rect width="6.25" height="6.25" transform="translate(31.25 19.75)" fill="#FFD5E1"/>
<rect width="6.25" height="6.25" transform="translate(37.5 19.75)" fill="#FFD5E1"/>
<rect width="6.25" height="6.25" transform="translate(0 26)" fill="#FFD5E1"/>
<rect width="6.25" height="6.25" transform="translate(6.25 26)" fill="#FFD5E1"/>
<rect width="6.25" height="6.25" transform="translate(12.5 26)" fill="#FFD5E1"/>
<rect width="6.25" height="6.25" transform="translate(25 26)" fill="#FFD5E1"/>
<rect width="6.25" height="6.25" transform="translate(31.25 26)" fill="#FFD5E1"/>
<rect width="6.25" height="6.25" transform="translate(37.5 26)" fill="#FFD5E1"/>
<rect width="6.25" height="6.25" transform="translate(0 32.25)" fill="#FFD5E1"/>
<rect width="6.25" height="6.25" transform="translate(0 38.5)" fill="#FFD5E1"/>
<rect width="6.25" height="6.25" transform="translate(6.25 32.25)" fill="#FFD5E1"/>
<rect width="6.25" height="6.25" transform="translate(12.5 32.25)" fill="#FFD5E1"/>
<rect width="6.25" height="6.25" transform="translate(18.75 32.25)" fill="#FFD5E1"/>
<rect width="6.25" height="6.25" transform="translate(18.75 26)" fill="#FFD5E1"/>
<rect width="6.25" height="6.25" transform="translate(25 32.25)" fill="#FFD5E1"/>
<rect width="6.25" height="6.25" transform="translate(31.25 32.25)" fill="#FFD5E1"/>
<rect width="6.25" height="6.25" transform="translate(37.5 32.25)" fill="#FF89AC"/>
<rect width="6.25" height="6.25" transform="translate(0 44.75)" fill="#FF89AC"/>
<rect width="6.25" height="6.25" transform="translate(6.25 38.5)" fill="#FFD5E1"/>
<rect width="6.25" height="6.25" transform="translate(12.5 38.5)" fill="#FFD5E1"/>
<rect width="6.25" height="6.25" transform="translate(18.75 38.5)" fill="#FF89AC"/>
<rect width="6.25" height="6.25" transform="translate(25 38.5)" fill="#FF89AC"/>
<rect width="6.25" height="6.25" transform="translate(31.25 38.5)" fill="#FF89AC"/>
<rect width="6.25" height="6.25" transform="translate(6.25 44.75)" fill="#FF89AC"/>
<rect width="6.25" height="6.25" transform="translate(12.5 44.75)" fill="#FF89AC"/>
<rect width="6.25" height="6.25" transform="translate(56.25)" fill="#FFD5E1"/>
<rect width="6.25" height="6.25" transform="translate(62.5)" fill="#FFD5E1"/>
<rect width="6.25" height="6.25" transform="translate(68.75)" fill="#FFD5E1"/>
<rect width="6.25" height="6.25" transform="translate(75)" fill="#FFD5E1"/>
<rect width="6.25" height="6.25" transform="translate(81.25)" fill="#FFD5E1"/>
<rect width="6.25" height="6.25" transform="translate(50 6.25)" fill="#FFD5E1"/>
<rect width="6.25" height="6.25" transform="translate(56.25 6.25)" fill="#FFD5E1"/>
<rect width="6.25" height="6.25" transform="translate(62.5 6.25)" fill="#FFD5E1"/>
<rect width="6.25" height="6.25" transform="translate(68.75 6.25)" fill="#FFD5E1"/>
<rect width="6.25" height="6.25" transform="translate(75 6.25)" fill="#FFD5E1"/>
<rect width="6.25" height="6.25" transform="translate(81.25 6.25)" fill="#FFD5E1"/>
<rect width="6.25" height="6.25" transform="translate(87.5 6.25)" fill="#FFD5E1"/>
<rect width="6.25" height="6.25" transform="translate(50 12.5)" fill="#FFD5E1"/>
<rect width="6.25" height="6.25" transform="translate(56.25 12.5)" fill="#FFD5E1"/>
<rect width="6.25" height="6.25" transform="translate(62.5 12.5)" fill="#FFD5E1"/>
<rect width="6.25" height="6.25" transform="translate(68.75 12.5)" fill="#FF89AC"/>
<rect width="6.25" height="6.25" transform="translate(75 12.5)" fill="#FFD5E1"/>
<rect width="6.25" height="6.25" transform="translate(81.25 12.5)" fill="#FFD5E1"/>
<rect width="6.25" height="6.25" transform="translate(87.5 12.5)" fill="#FFD5E1"/>
<rect width="6.25" height="6.25" transform="translate(50 18.75)" fill="#FFD5E1"/>
<rect width="6.25" height="6.25" transform="translate(56.25 18.75)" fill="#FFD5E1"/>
<rect width="6.25" height="6.25" transform="translate(62.5 18.75)" fill="#FFD5E1"/>
<rect width="6.25" height="6.25" transform="translate(75 18.75)" fill="#FFD5E1"/>
<rect width="6.25" height="6.25" transform="translate(81.25 18.75)" fill="#FFD5E1"/>
<rect width="6.25" height="6.25" transform="translate(87.5 18.75)" fill="#FFD5E1"/>
<rect width="6.25" height="6.25" transform="translate(50 25)" fill="#FFD5E1"/>
<rect width="6.25" height="6.25" transform="translate(56.25 25)" fill="#FFD5E1"/>
<rect width="6.25" height="6.25" transform="translate(62.5 25)" fill="#FFD5E1"/>
<rect width="6.25" height="6.25" transform="translate(68.75 25)" fill="#FFD5E1"/>
<rect width="6.25" height="6.25" transform="translate(75 25)" fill="#FFD5E1"/>
<rect width="6.25" height="6.25" transform="translate(81.25 25)" fill="#FFD5E1"/>
<rect width="6.25" height="6.25" transform="translate(87.5 25)" fill="#FFD5E1"/>
<rect width="6.25" height="6.25" transform="translate(50 31.25)" fill="#FFD5E1"/>
<rect width="6.25" height="6.25" transform="translate(56.25 31.25)" fill="#FFD5E1"/>
<rect width="6.25" height="6.25" transform="translate(62.5 31.25)" fill="#FFD5E1"/>
<rect width="6.25" height="6.25" transform="translate(68.75 31.25)" fill="#FF89AC"/>
<rect width="6.25" height="6.25" transform="translate(75 31.25)" fill="#FFD5E1"/>
<rect width="6.25" height="6.25" transform="translate(81.25 31.25)" fill="#FFD5E1"/>
<rect width="6.25" height="6.25" transform="translate(87.5 31.25)" fill="#FFD5E1"/>
<rect width="6.25" height="6.25" transform="translate(50 37.5)" fill="#FFD5E1"/>
<rect width="6.25" height="6.25" transform="translate(56.25 37.5)" fill="#FFD5E1"/>
<rect width="6.25" height="6.25" transform="translate(62.5 37.5)" fill="#FFD5E1"/>
<rect width="6.25" height="6.25" transform="translate(75 37.5)" fill="#FFD5E1"/>
<rect width="6.25" height="6.25" transform="translate(81.25 37.5)" fill="#FFD5E1"/>
<rect width="6.25" height="6.25" transform="translate(87.5 37.5)" fill="#FFD5E1"/>
<rect width="6.25" height="6.25" transform="translate(50 43.75)" fill="#FF89AC"/>
<rect width="6.25" height="6.25" transform="translate(56.25 43.75)" fill="#FF89AC"/>
<rect width="6.25" height="6.25" transform="translate(62.5 43.75)" fill="#FF89AC"/>
<rect width="6.25" height="6.25" transform="translate(75 43.75)" fill="#FF89AC"/>
<rect width="6.25" height="6.25" transform="translate(81.25 43.75)" fill="#FF89AC"/>
<rect width="6.25" height="6.25" transform="translate(87.5 43.75)" fill="#FF89AC"/>
<rect width="6.25" height="6.25" transform="translate(112.5)" fill="#FFD5E1"/>
<rect width="6.25" height="6.25" transform="translate(137.5)" fill="#FFD5E1"/>
<rect width="6.25" height="6.25" transform="translate(106.25)" fill="#FFD5E1"/>
<rect width="6.25" height="6.25" transform="translate(131.25)" fill="#FFD5E1"/>
<rect width="6.25" height="6.25" transform="translate(100)" fill="#FFD5E1"/>
<rect width="6.25" height="6.25" transform="translate(125)" fill="#FFD5E1"/>
<rect width="6.25" height="6.25" transform="translate(100 6.25)" fill="#FFD5E1"/>
<rect width="6.25" height="6.25" transform="translate(125 6.25)" fill="#FFD5E1"/>
<rect width="6.25" height="6.25" transform="translate(112.5 6.25)" fill="#FFD5E1"/>
<rect width="6.25" height="6.25" transform="translate(137.5 6.25)" fill="#FFD5E1"/>
<rect width="6.25" height="6.25" transform="translate(106.25 6.25)" fill="#FFD5E1"/>
<rect width="6.25" height="6.25" transform="translate(131.25 6.25)" fill="#FFD5E1"/>
<rect width="6.25" height="6.25" transform="translate(112.5 12.5)" fill="#FFD5E1"/>
<rect width="6.25" height="6.25" transform="translate(137.5 12.5)" fill="#FFD5E1"/>
<rect width="6.25" height="6.25" transform="translate(106.25 12.5)" fill="#FFD5E1"/>
<rect width="6.25" height="6.25" transform="translate(131.25 12.5)" fill="#FFD5E1"/>
<rect width="6.25" height="6.25" transform="translate(100 12.5)" fill="#FFD5E1"/>
<rect width="6.25" height="6.25" transform="translate(125 12.5)" fill="#FFD5E1"/>
<rect width="6.25" height="6.25" transform="translate(106.25 18.75)" fill="#FFD5E1"/>
<rect width="6.25" height="6.25" transform="translate(131.25 18.75)" fill="#FFD5E1"/>
<rect width="6.25" height="6.25" transform="translate(100 18.75)" fill="#FFD5E1"/>
<rect width="6.25" height="6.25" transform="translate(125 18.75)" fill="#FFD5E1"/>
<rect width="6.25" height="6.25" transform="translate(112.5 18.75)" fill="#FFD5E1"/>
<rect width="6.25" height="6.25" transform="translate(137.5 18.75)" fill="#FFD5E1"/>
<rect width="6.25" height="6.25" transform="translate(100 25)" fill="#FFD5E1"/>
<rect width="6.25" height="6.25" transform="translate(125 25)" fill="#FFD5E1"/>
<rect width="6.25" height="6.25" transform="translate(106.25 25)" fill="#FFD5E1"/>
<rect width="6.25" height="6.25" transform="translate(131.25 25)" fill="#FFD5E1"/>
<rect width="6.25" height="6.25" transform="translate(112.5 25)" fill="#FFD5E1"/>
<rect width="6.25" height="6.25" transform="translate(137.5 25)" fill="#FFD5E1"/>
<rect width="6.25" height="6.25" transform="translate(100 31.25)" fill="#FFD5E1"/>
<rect width="6.25" height="6.25" transform="translate(125 31.25)" fill="#FFD5E1"/>
<rect width="6.25" height="6.25" transform="translate(106.25 31.25)" fill="#FFD5E1"/>
<rect width="6.25" height="6.25" transform="translate(131.25 31.25)" fill="#FFD5E1"/>
<rect width="6.25" height="6.25" transform="translate(112.5 31.25)" fill="#FFD5E1"/>
<rect width="6.25" height="6.25" transform="translate(118.75 31.25)" fill="#FFD5E1"/>
<rect width="6.25" height="6.25" transform="translate(118.75 25)" fill="#FFD5E1"/>
<rect width="6.25" height="6.25" transform="translate(137.5 31.25)" fill="#FFD5E1"/>
<rect width="6.25" height="6.25" transform="translate(100 37.5)" fill="#FF89AC"/>
<rect width="6.25" height="6.25" transform="translate(125 37.5)" fill="#FFD5E1"/>
<rect width="6.25" height="6.25" transform="translate(106.25 37.5)" fill="#FFD5E1"/>
<rect width="6.25" height="6.25" transform="translate(131.25 37.5)" fill="#FFD5E1"/>
<rect width="6.25" height="6.25" transform="translate(112.5 37.5)" fill="#FFD5E1"/>
<rect width="6.25" height="6.25" transform="translate(118.75 37.5)" fill="#FFD5E1"/>
<rect width="6.25" height="6.25" transform="translate(137.5 37.5)" fill="#FF89AC"/>
<rect width="6.25" height="6.25" transform="translate(125 43.75)" fill="#FF89AC"/>
<rect width="6.25" height="6.25" transform="translate(106.25 43.75)" fill="#FF89AC"/>
<rect width="6.25" height="6.25" transform="translate(131.25 43.75)" fill="#FF89AC"/>
<rect width="6.25" height="6.25" transform="translate(112.5 43.75)" fill="#FF89AC"/>
<rect width="6.25" height="6.25" transform="translate(118.75 43.75)" fill="#FF89AC"/>
<rect width="6.25" height="6.25" transform="translate(156.25)" fill="#FFD5E1"/>
<rect width="6.25" height="6.25" transform="translate(162.5)" fill="#FFD5E1"/>
<rect width="6.25" height="6.25" transform="translate(168.75)" fill="#FFD5E1"/>
<rect width="6.25" height="6.25" transform="translate(175)" fill="#FFD5E1"/>
<rect width="6.25" height="6.25" transform="translate(150 6.25)" fill="#FFD5E1"/>
<rect width="6.25" height="6.25" transform="translate(156.25 6.25)" fill="#FFD5E1"/>
<rect width="6.25" height="6.25" transform="translate(162.5 6.25)" fill="#FFD5E1"/>
<rect width="6.25" height="6.25" transform="translate(168.75 6.25)" fill="#FFD5E1"/>
<rect width="6.25" height="6.25" transform="translate(168.75 12.5)" fill="#FF89AC"/>
<rect width="6.25" height="6.25" transform="translate(181.25 6.25)" fill="#FFD5E1"/>
<rect width="6.25" height="6.25" transform="translate(175 6.25)" fill="#FFD5E1"/>
<rect width="6.25" height="6.25" transform="translate(187.5 6.25)" fill="#FFD5E1"/>
<rect width="6.25" height="6.25" transform="translate(181.25)" fill="#FFD5E1"/>
<rect width="6.25" height="6.25" transform="translate(150 12.5)" fill="#FFD5E1"/>
<rect width="6.25" height="6.25" transform="translate(156.25 12.5)" fill="#FFD5E1"/>
<rect width="6.25" height="6.25" transform="translate(162.5 12.5)" fill="#FFD5E1"/>
<rect width="6.25" height="6.25" transform="translate(175 12.5)" fill="#FF89AC"/>
<rect width="6.25" height="6.25" transform="translate(181.25 12.5)" fill="#FF89AC"/>
<rect width="6.25" height="6.25" transform="translate(187.5 12.5)" fill="#FF89AC"/>
<rect width="6.25" height="6.25" transform="translate(150 18.75)" fill="#FFD5E1"/>
<rect width="6.25" height="6.25" transform="translate(156.25 18.75)" fill="#FFD5E1"/>
<rect width="6.25" height="6.25" transform="translate(162.5 18.75)" fill="#FFD5E1"/>
<rect width="6.25" height="6.25" transform="translate(175 18.75)" fill="#FFD5E1"/>
<rect width="6.25" height="6.25" transform="translate(168.75 18.75)" fill="#FFD5E1"/>
<rect width="6.25" height="6.25" transform="translate(181.25 18.75)" fill="#FFD5E1"/>
<rect width="6.25" height="6.25" transform="translate(187.5 18.75)" fill="#FFD5E1"/>
<rect width="6.25" height="6.25" transform="translate(150 25)" fill="#FF89AC"/>
<rect width="6.25" height="6.25" transform="translate(156.25 25)" fill="#FF89AC"/>
<rect width="6.25" height="6.25" transform="translate(162.5 25)" fill="#FF89AC"/>
<rect width="6.25" height="6.25" transform="translate(175 25)" fill="#FFD5E1"/>
<rect width="6.25" height="6.25" transform="translate(181.25 25)" fill="#FFD5E1"/>
<rect width="6.25" height="6.25" transform="translate(187.5 25)" fill="#FFD5E1"/>
<rect width="6.25" height="6.25" transform="translate(150 31.25)" fill="#FFD5E1"/>
<rect width="6.25" height="6.25" transform="translate(156.25 31.25)" fill="#FFD5E1"/>
<rect width="6.25" height="6.25" transform="translate(162.5 31.25)" fill="#FFD5E1"/>
<rect width="6.25" height="6.25" transform="translate(168.75 25)" fill="#FF89AC"/>
<rect width="6.25" height="6.25" transform="translate(175 31.25)" fill="#FFD5E1"/>
<rect width="6.25" height="6.25" transform="translate(181.25 31.25)" fill="#FFD5E1"/>
<rect width="6.25" height="6.25" transform="translate(150 37.5)" fill="#FF89AC"/>
<rect width="6.25" height="6.25" transform="translate(156.25 37.5)" fill="#FFD5E1"/>
<rect width="6.25" height="6.25" transform="translate(162.5 37.5)" fill="#FFD5E1"/>
<rect width="6.25" height="6.25" transform="translate(168.75 31.25)" fill="#FFD5E1"/>
<rect width="6.25" height="6.25" transform="translate(168.75 37.5)" fill="#FFD5E1"/>
<rect width="6.25" height="6.25" transform="translate(175 37.5)" fill="#FFD5E1"/>
<rect width="6.25" height="6.25" transform="translate(181.25 37.5)" fill="#FFD5E1"/>
<rect width="6.25" height="6.25" transform="translate(187.5 31.25)" fill="#FFD5E1"/>
<rect width="6.25" height="6.25" transform="translate(187.5 37.5)" fill="#FF89AC"/>
<rect width="6.25" height="6.25" transform="translate(156.25 43.75)" fill="#FF89AC"/>
<rect width="6.25" height="6.25" transform="translate(162.5 43.75)" fill="#FF89AC"/>
<rect width="6.25" height="6.25" transform="translate(168.75 43.75)" fill="#FF89AC"/>
<rect width="6.25" height="6.25" transform="translate(175 43.75)" fill="#FF89AC"/>
<rect width="6.25" height="6.25" transform="translate(181.25 43.75)" fill="#FF89AC"/>
<rect width="6.25" height="6.25" transform="translate(206.25 1)" fill="#FFD5E1"/>
<rect width="6.25" height="6.25" transform="translate(200 1)" fill="#FFD5E1"/>
<rect width="6.25" height="6.25" transform="translate(212.5 1)" fill="#FFD5E1"/>
<rect width="6.25" height="6.25" transform="translate(218.75 1)" fill="#FFD5E1"/>
<rect width="6.25" height="6.25" transform="translate(225 1)" fill="#FFD5E1"/>
<rect width="6.25" height="6.25" transform="translate(231.25 1)" fill="#FFD5E1"/>
<rect width="6.25" height="6.25" transform="translate(237.5 1)" fill="#FFD5E1"/>
<rect width="6.25" height="6.25" transform="translate(200 7.25)" fill="#FFD5E1"/>
<rect width="6.25" height="6.25" transform="translate(206.25 7.25)" fill="#FFD5E1"/>
<rect width="6.25" height="6.25" transform="translate(212.5 7.25)" fill="#FFD5E1"/>
<rect width="6.25" height="6.25" transform="translate(218.75 7.25)" fill="#FFD5E1"/>
<rect width="6.25" height="6.25" transform="translate(225 7.25)" fill="#FFD5E1"/>
<rect width="6.25" height="6.25" transform="translate(231.25 7.25)" fill="#FFD5E1"/>
<rect width="6.25" height="6.25" transform="translate(237.5 7.25)" fill="#FFD5E1"/>
<rect width="6.25" height="6.25" transform="translate(200 13.5)" fill="#FFD5E1"/>
<rect width="6.25" height="6.25" transform="translate(206.25 13.5)" fill="#FFD5E1"/>
<rect width="6.25" height="6.25" transform="translate(212.5 13.5)" fill="#FFD5E1"/>
<rect width="6.25" height="6.25" transform="translate(218.75 13.5)" fill="#FF89AC"/>
<rect width="6.25" height="6.25" transform="translate(225 13.5)" fill="#FF89AC"/>
<rect width="6.25" height="6.25" transform="translate(231.25 13.5)" fill="#FF89AC"/>
<rect width="6.25" height="6.25" transform="translate(237.5 13.5)" fill="#FF89AC"/>
<rect width="6.25" height="6.25" transform="translate(200 19.75)" fill="#FFD5E1"/>
<rect width="6.25" height="6.25" transform="translate(206.25 19.75)" fill="#FFD5E1"/>
<rect width="6.25" height="6.25" transform="translate(212.5 19.75)" fill="#FFD5E1"/>
<rect width="6.25" height="6.25" transform="translate(225 19.75)" fill="#FFD5E1"/>
<rect width="6.25" height="6.25" transform="translate(218.75 19.75)" fill="#FFD5E1"/>
<rect width="6.25" height="6.25" transform="translate(231.25 19.75)" fill="#FFD5E1"/>
<rect width="6.25" height="6.25" transform="translate(237.5 19.75)" fill="#FFD5E1"/>
<rect width="6.25" height="6.25" transform="translate(200 26)" fill="#FFD5E1"/>
<rect width="6.25" height="6.25" transform="translate(206.25 26)" fill="#FFD5E1"/>
<rect width="6.25" height="6.25" transform="translate(212.5 26)" fill="#FFD5E1"/>
<rect width="6.25" height="6.25" transform="translate(225 26)" fill="#FF89AC"/>
<rect width="6.25" height="6.25" transform="translate(218.75 26)" fill="#FF89AC"/>
<rect width="6.25" height="6.25" transform="translate(231.25 26)" fill="#FF89AC"/>
<rect width="6.25" height="6.25" transform="translate(237.5 26)" fill="#FF89AC"/>
<rect width="6.25" height="6.25" transform="translate(200 32.25)" fill="#FFD5E1"/>
<rect width="6.25" height="6.25" transform="translate(206.25 32.25)" fill="#FFD5E1"/>
<rect width="6.25" height="6.25" transform="translate(212.5 32.25)" fill="#FFD5E1"/>
<rect width="6.25" height="6.25" transform="translate(218.75 32.25)" fill="#FFD5E1"/>
<rect width="6.25" height="6.25" transform="translate(225 32.25)" fill="#FFD5E1"/>
<rect width="6.25" height="6.25" transform="translate(231.25 32.25)" fill="#FFD5E1"/>
<rect width="6.25" height="6.25" transform="translate(237.5 32.25)" fill="#FFD5E1"/>
<rect width="6.25" height="6.25" transform="translate(200 38.5)" fill="#FFD5E1"/>
<rect width="6.25" height="6.25" transform="translate(206.25 38.5)" fill="#FFD5E1"/>
<rect width="6.25" height="6.25" transform="translate(212.5 38.5)" fill="#FFD5E1"/>
<rect width="6.25" height="6.25" transform="translate(218.75 38.5)" fill="#FFD5E1"/>
<rect width="6.25" height="6.25" transform="translate(225 38.5)" fill="#FFD5E1"/>
<rect width="6.25" height="6.25" transform="translate(231.25 38.5)" fill="#FFD5E1"/>
<rect width="6.25" height="6.25" transform="translate(237.5 38.5)" fill="#FFD5E1"/>
<rect width="6.25" height="6.25" transform="translate(237.5 44.75)" fill="#FF89AC"/>
<rect width="6.25" height="6.25" transform="translate(206.25 44.75)" fill="#FF89AC"/>
<rect width="6.25" height="6.25" transform="translate(200 44.75)" fill="#FF89AC"/>
<rect width="6.25" height="6.25" transform="translate(212.5 44.75)" fill="#FF89AC"/>
<rect width="6.25" height="6.25" transform="translate(218.75 44.75)" fill="#FF89AC"/>
<rect width="6.25" height="6.25" transform="translate(225 44.75)" fill="#FF89AC"/>
<rect width="6.25" height="6.25" transform="translate(231.25 44.75)" fill="#FF89AC"/>
<rect width="6.25" height="6.25" transform="translate(256.25 1)" fill="#FFD5E1"/>
<rect width="6.25" height="6.25" transform="translate(250 1)" fill="#FFD5E1"/>
<rect width="6.25" height="6.25" transform="translate(262.5 1)" fill="#FFD5E1"/>
<rect width="6.25" height="6.25" transform="translate(268.75 1)" fill="#FFD5E1"/>
<rect width="6.25" height="6.25" transform="translate(275 1)" fill="#FFD5E1"/>
<rect width="6.25" height="6.25" transform="translate(281.25 1)" fill="#FFD5E1"/>
<rect width="6.25" height="6.25" transform="translate(250 7.25)" fill="#FFD5E1"/>
<rect width="6.25" height="6.25" transform="translate(256.25 7.25)" fill="#FFD5E1"/>
<rect width="6.25" height="6.25" transform="translate(262.5 7.25)" fill="#FFD5E1"/>
<rect width="6.25" height="6.25" transform="translate(268.75 7.25)" fill="#FFD5E1"/>
<rect width="6.25" height="6.25" transform="translate(275 7.25)" fill="#FFD5E1"/>
<rect width="6.25" height="6.25" transform="translate(281.25 7.25)" fill="#FFD5E1"/>
<rect width="6.25" height="6.25" transform="translate(287.5 7.25)" fill="#FFD5E1"/>
<rect width="6.25" height="6.25" transform="translate(250 13.5)" fill="#FFD5E1"/>
<rect width="6.25" height="6.25" transform="translate(256.25 13.5)" fill="#FFD5E1"/>
<rect width="6.25" height="6.25" transform="translate(262.5 13.5)" fill="#FFD5E1"/>
<rect width="6.25" height="6.25" transform="translate(268.75 13.5)" fill="#FF89AC"/>
<rect width="6.25" height="6.25" transform="translate(275 13.5)" fill="#FFD5E1"/>
<rect width="6.25" height="6.25" transform="translate(281.25 13.5)" fill="#FFD5E1"/>
<rect width="6.25" height="6.25" transform="translate(287.5 13.5)" fill="#FFD5E1"/>
<rect width="6.25" height="6.25" transform="translate(250 19.75)" fill="#FFD5E1"/>
<rect width="6.25" height="6.25" transform="translate(256.25 19.75)" fill="#FFD5E1"/>
<rect width="6.25" height="6.25" transform="translate(262.5 19.75)" fill="#FFD5E1"/>
<rect width="6.25" height="6.25" transform="translate(275 19.75)" fill="#FFD5E1"/>
<rect width="6.25" height="6.25" transform="translate(281.25 19.75)" fill="#FFD5E1"/>
<rect width="6.25" height="6.25" transform="translate(287.5 19.75)" fill="#FFD5E1"/>
<rect width="6.25" height="6.25" transform="translate(250 26)" fill="#FFD5E1"/>
<rect width="6.25" height="6.25" transform="translate(256.25 26)" fill="#FFD5E1"/>
<rect width="6.25" height="6.25" transform="translate(262.5 26)" fill="#FFD5E1"/>
<rect width="6.25" height="6.25" transform="translate(275 26)" fill="#FFD5E1"/>
<rect width="6.25" height="6.25" transform="translate(281.25 26)" fill="#FFD5E1"/>
<rect width="6.25" height="6.25" transform="translate(287.5 26)" fill="#FFD5E1"/>
<rect width="6.25" height="6.25" transform="translate(250 32.25)" fill="#FFD5E1"/>
<rect width="6.25" height="6.25" transform="translate(256.25 32.25)" fill="#FFD5E1"/>
<rect width="6.25" height="6.25" transform="translate(262.5 32.25)" fill="#FFD5E1"/>
<rect width="6.25" height="6.25" transform="translate(268.75 32.25)" fill="#FFD5E1"/>
<rect width="6.25" height="6.25" transform="translate(275 32.25)" fill="#FFD5E1"/>
<rect width="6.25" height="6.25" transform="translate(281.25 32.25)" fill="#FFD5E1"/>
<rect width="6.25" height="6.25" transform="translate(287.5 32.25)" fill="#FFD5E1"/>
<rect width="6.25" height="6.25" transform="translate(250 38.5)" fill="#FFD5E1"/>
<rect width="6.25" height="6.25" transform="translate(256.25 38.5)" fill="#FFD5E1"/>
<rect width="6.25" height="6.25" transform="translate(262.5 38.5)" fill="#FFD5E1"/>
<rect width="6.25" height="6.25" transform="translate(268.75 38.5)" fill="#FFD5E1"/>
<rect width="6.25" height="6.25" transform="translate(275 38.5)" fill="#FFD5E1"/>
<rect width="6.25" height="6.25" transform="translate(281.25 38.5)" fill="#FFD5E1"/>
<rect width="6.25" height="6.25" transform="translate(287.5 38.5)" fill="#FF89AC"/>
<rect width="6.25" height="6.25" transform="translate(256.25 44.75)" fill="#FF89AC"/>
<rect width="6.25" height="6.25" transform="translate(250 44.75)" fill="#FF89AC"/>
<rect width="6.25" height="6.25" transform="translate(262.5 44.75)" fill="#FF89AC"/>
<rect width="6.25" height="6.25" transform="translate(268.75 44.75)" fill="#FF89AC"/>
<rect width="6.25" height="6.25" transform="translate(275 44.75)" fill="#FF89AC"/>
<rect width="6.25" height="6.25" transform="translate(281.25 44.75)" fill="#FF89AC"/>
</svg>
